<svg xmlns="http://www.w3.org/2000/svg" xmlns:xlink="http://www.w3.org/1999/xlink" width="1000px" height="630px" viewBox="0 0  1000 630" preserveAspectRatio="xMidYMid meet" ><rect id="svgEditorBackground" x="0" y="0" width="1000" height="630" style="fill: none; stroke: none;"/><defs id="svgEditorDefs"><polygon id="svgEditorShapeDefs" style="fill:rosybrown;stroke:black;vector-effect:non-scaling-stroke;stroke-width:1px;"/><radialGradient gradientUnits="objectBoundingBox" id="rgrd3-c" x1="0" x2="100%" y1="0" y2="100%"><stop offset="0%" stop-color="#000000"/><stop offset="60%" stop-color="#331A0F"/><stop offset="90%" stop-color="#733B20"/></radialGradient></defs><path d="M7.376623376623385,17.454545454545446h4a4,4,0,0,0,-4,-4.000000000000002v4.000000000000002v-4.000000000000002a4,4,0,0,0,-3.9999999999999996,4.000000000000002h3.9999999999999996h-3.9999999999999996a4,4,0,0,0,3.9999999999999996,4v-4v4a4,4,0,0,0,4,-4h-4Z" style="fill:url(#rgrd3-c); stroke:none; vector-effect:non-scaling-stroke;stroke-width:1px;" id="e1_shape" transform="matrix(9.625 0 0 9.625 192.5 135.5)"/><path d="M18.519480519480517,33.272727272727266h4a4,4,0,0,0,-4,-4.0000000000000036v4.0000000000000036v-4.0000000000000036a4,4,0,0,0,-4,4.0000000000000036h4h-4a4,4,0,0,0,4,4.000000000000014v-4.000000000000014v4.000000000000014a4,4,0,0,0,4,-4.000000000000014h-4Z" style="fill:url(#rgrd3-c); stroke:none; vector-effect:non-scaling-stroke;stroke-width:1px;" id="e13_shape" transform="matrix(9.625 0 0 9.625 192.5 135.5)"/><path d="M22.70129870129874,26.441558441558463h4.000000000000007a4,4,0,0,0,-4.000000000000007,-4.000000000000014v4.000000000000014v-4.000000000000014a4,4,0,0,0,-4,4.000000000000014h4h-4a4,4,0,0,0,4,3.999999999999986v-4v4a4,4,0,0,0,4.000000000000007,-4h-4.000000000000007Z" style="fill:url(#rgrd3-c); stroke:none; vector-effect:non-scaling-stroke;stroke-width:1px;" id="e2_shape" transform="matrix(9.625 0 0 9.625 192.5 135.5)"/><path d="M27.610389610389625,33.324675324675326h3.999999999999986a4,4,0,0,0,-3.999999999999986,-4.000000000000007v4.000000000000007v-4.000000000000007a4,4,0,0,0,-3.999999999999993,4.000000000000007h3.999999999999993h-3.999999999999993a4,4,0,0,0,3.999999999999993,4.000000000000014v-4.000000000000014v4.000000000000014a4,4,0,0,0,3.999999999999986,-4.000000000000014h-3.999999999999986Z" style="fill:url(#rgrd3-c); stroke:none; vector-effect:non-scaling-stroke;stroke-width:1px;" id="e3_shape" transform="matrix(9.625 0 0 9.625 192.5 135.5)"/><path d="M8.90909090909092,31.558441558441555h4.0000000000000036a4,4,0,0,0,-4.0000000000000036,-4v4v-4a4,4,0,0,0,-4.000000000000002,4h4.000000000000002h-4.000000000000002a4,4,0,0,0,4.000000000000002,4.0000000000000036v-4.0000000000000036v4.0000000000000036a4,4,0,0,0,4.0000000000000036,-4.0000000000000036h-4.0000000000000036Z" style="fill:url(#rgrd3-c); stroke:none; vector-effect:non-scaling-stroke;stroke-width:1px;" id="e4_shape" transform="matrix(9.625 0 0 9.625 192.5 135.5)"/><path d="M28.12987012987013,19.714285714285737h3.9999999999999964a4,4,0,0,0,-3.9999999999999964,-4.000000000000021v4.000000000000021v-4.000000000000021a4,4,0,0,0,-3.999999999999993,4.000000000000021h3.999999999999993h-3.999999999999993a4,4,0,0,0,3.999999999999993,4v-4v4a4,4,0,0,0,3.9999999999999964,-4h-3.9999999999999964Z" style="fill:url(#rgrd3-c); stroke:none; vector-effect:non-scaling-stroke;stroke-width:1px;" id="e5_shape" transform="matrix(9.625 0 0 9.625 192.5 135.5)"/><path d="M32.72727272727268,26.701298701298732h4a4,4,0,0,0,-4,-4v4v-4a4,4,0,0,0,-3.9999999999999787,4h3.9999999999999787h-3.9999999999999787a4,4,0,0,0,3.9999999999999787,4.000000000000007v-4.000000000000007v4.000000000000007a4,4,0,0,0,4,-4.000000000000007h-4Z" style="fill:url(#rgrd3-c); stroke:none; vector-effect:non-scaling-stroke;stroke-width:1px;" id="e6_shape" transform="matrix(9.625 0 0 9.625 192.5 135.5)"/><path d="M-16.285714285714345,17.6883116883117h4.000000000000014a4,4,0,0,0,-4.000000000000014,-3.999999999999991v3.999999999999991v-3.999999999999991a4,4,0,0,0,-3.9999999999999716,3.999999999999991h3.9999999999999716h-3.9999999999999716a4,4,0,0,0,3.9999999999999716,4.000000000000007v-4.000000000000007v4.000000000000007a4,4,0,0,0,4.000000000000014,-4.000000000000007h-4.000000000000014Z" style="fill:url(#rgrd3-c); stroke:none; vector-effect:non-scaling-stroke;stroke-width:1px;" id="e7_shape" transform="matrix(9.625 0 0 9.625 192.5 135.5)"/><path d="M19.428571428571438,19.116883116883137h4.000000000000018a4,4,0,0,0,-4.000000000000018,-4.000000000000007v4.000000000000007v-4.000000000000007a4,4,0,0,0,-3.9999999999999964,4.000000000000007h3.9999999999999964h-3.9999999999999964a4,4,0,0,0,3.9999999999999964,4v-4v4a4,4,0,0,0,4.000000000000018,-4h-4.000000000000018Z" style="fill:url(#rgrd3-c); stroke:none; vector-effect:non-scaling-stroke;stroke-width:1px;" id="e8_shape" transform="matrix(9.625 0 0 9.625 192.5 135.5)"/><path d="M-17.19480519480526,31.844155844155857h4.000000000000014a4,4,0,0,0,-4.000000000000014,-3.999999999999993v3.999999999999993v-3.999999999999993a4,4,0,0,0,-3.9999999999999716,3.999999999999993h3.9999999999999716h-3.9999999999999716a4,4,0,0,0,3.9999999999999716,4.000000000000007v-4.000000000000007v4.000000000000007a4,4,0,0,0,4.000000000000014,-4.000000000000007h-4.000000000000014Z" style="fill:url(#rgrd3-c); stroke:none; vector-effect:non-scaling-stroke;stroke-width:1px;" id="e9_shape" transform="matrix(9.625 0 0 9.625 192.5 135.5)"/><path d="M45.844155844155836,31.40259740259738h4a4,4,0,0,0,-4,-3.9999999999999716v3.9999999999999716v-3.9999999999999716a4,4,0,0,0,-4,3.9999999999999716h4h-4a4,4,0,0,0,4,4v-4v4a4,4,0,0,0,4,-4h-4Z" style="fill:url(#rgrd3-c); stroke:none; vector-effect:non-scaling-stroke;stroke-width:1px;" id="e10_shape" transform="matrix(9.625 0 0 9.625 192.5 135.5)"/><path d="M60.103896103896105,25.09090909090905h4a4,4,0,0,0,-4,-3.9999999999999645v3.9999999999999645v-3.9999999999999645a4,4,0,0,0,-4,3.9999999999999645h4h-4a4,4,0,0,0,4,4.000000000000007v-4.000000000000007v4.000000000000007a4,4,0,0,0,4,-4.000000000000007h-4Z" style="fill:url(#rgrd3-c); stroke:none; vector-effect:non-scaling-stroke;stroke-width:1px;" id="e11_shape" transform="matrix(9.625 0 0 9.625 192.5 135.5)"/><path d="M69.8961038961039,20.545454545454483h4a4,4,0,0,0,-4,-3.9999999999999574v3.9999999999999574v-3.9999999999999574a4,4,0,0,0,-4,3.9999999999999574h4h-4a4,4,0,0,0,4,4v-4v4a4,4,0,0,0,4,-4h-4Z" style="fill:url(#rgrd3-c); stroke:none; vector-effect:non-scaling-stroke;stroke-width:1px;" id="e12_shape" transform="matrix(9.625 0 0 9.625 192.5 135.5)"/><path d="M70.96103896103897,27.844155844155786h4a4,4,0,0,0,-4,-3.9999999999999574v3.9999999999999574v-3.9999999999999574a4,4,0,0,0,-4,3.9999999999999574h4h-4a4,4,0,0,0,4,4v-4v4a4,4,0,0,0,4,-4h-4Z" style="fill:url(#rgrd3-c); stroke:none; vector-effect:non-scaling-stroke;stroke-width:1px;" id="e14_shape" transform="matrix(9.625 0 0 9.625 192.5 135.5)"/><path d="M49.27272727272725,20.90909090909085h4a4,4,0,0,0,-4,-3.9999999999999574v3.9999999999999574v-3.9999999999999574a4,4,0,0,0,-4,3.9999999999999574h4h-4a4,4,0,0,0,4,4v-4v4a4,4,0,0,0,4,-4h-4Z" style="fill:url(#rgrd3-c); stroke:none; vector-effect:non-scaling-stroke;stroke-width:1px;" id="e15_shape" transform="matrix(9.625 0 0 9.625 192.5 135.5)"/><path d="M40.000000000000014,21.40259740259743h4a4,4,0,0,0,-4,-4.000000000000021v4.000000000000021v-4.000000000000021a4,4,0,0,0,-3.999999999999986,4.000000000000021h3.999999999999986h-3.999999999999986a4,4,0,0,0,3.999999999999986,4v-4v4a4,4,0,0,0,4,-4h-4Z" style="fill:url(#rgrd3-c); stroke:none; vector-effect:non-scaling-stroke;stroke-width:1px;" id="e16_shape" transform="matrix(9.625 0 0 9.625 192.5 135.5)"/><path d="M58.33766233766231,34.441558441558385h4a4,4,0,0,0,-4,-3.9999999999999645v3.9999999999999645v-3.9999999999999645a4,4,0,0,0,-4,3.9999999999999645h4h-4a4,4,0,0,0,4,4v-4v4a4,4,0,0,0,4,-4h-4Z" style="fill:url(#rgrd3-c); stroke:none; vector-effect:non-scaling-stroke;stroke-width:1px;" id="e17_shape" transform="matrix(9.625 0 0 9.625 192.5 135.5)"/><path d="M80.1038961038961,26.389610389610333h4a4,4,0,0,0,-4,-3.9999999999999574v3.9999999999999574v-3.9999999999999574a4,4,0,0,0,-4,3.9999999999999574h4h-4a4,4,0,0,0,4,4v-4v4a4,4,0,0,0,4,-4h-4Z" style="fill:url(#rgrd3-c); stroke:none; vector-effect:non-scaling-stroke;stroke-width:1px;" id="e18_shape" transform="matrix(9.625 0 0 9.625 192.5 135.5)"/><path d="M-2.0259740259740973,20.51948051948053h4.000000000000014a4,4,0,0,0,-4.000000000000014,-3.999999999999993v3.999999999999993v-3.999999999999993a4,4,0,0,0,-3.9999999999999716,3.999999999999993h3.9999999999999716h-3.9999999999999716a4,4,0,0,0,3.9999999999999716,4v-4v4a4,4,0,0,0,4.000000000000014,-4h-4.000000000000014Z" style="fill:url(#rgrd3-c); stroke:none; vector-effect:non-scaling-stroke;stroke-width:1px;" id="e19_shape" transform="matrix(9.625 0 0 9.625 192.5 135.5)"/><path d="M-5.974025974026047,33.81818181818185h4.000000000000014a4,4,0,0,0,-4.000000000000014,-3.999999999999993v3.999999999999993v-3.999999999999993a4,4,0,0,0,-3.99999999999997,3.999999999999993h3.99999999999997h-3.99999999999997a4,4,0,0,0,3.99999999999997,4.000000000000007v-4.000000000000007v4.000000000000007a4,4,0,0,0,4.000000000000016,-4.000000000000007h-4.000000000000016Z" style="fill:url(#rgrd3-c); stroke:none; vector-effect:non-scaling-stroke;stroke-width:1px;" id="e20_shape" transform="matrix(9.625 0 0 9.625 192.5 135.5)"/><path d="M-10.415584415584497,25.53246753246753h4.000000000000013a4,4,0,0,0,-4.000000000000013,-4v4v-4a4,4,0,0,0,-3.9999999999999716,4h3.9999999999999716h-3.9999999999999716a4,4,0,0,0,3.9999999999999716,4v-4v4a4,4,0,0,0,4.000000000000013,-4h-4.000000000000013Z" style="fill:url(#rgrd3-c); stroke:none; vector-effect:non-scaling-stroke;stroke-width:1px;" id="e21_shape" transform="matrix(9.625 0 0 9.625 192.5 135.5)"/><path d="M-0.23376623376630445,26.051948051948052h4.000000000000014a4,4,0,0,0,-4.000000000000014,-3.999999999999993v3.999999999999993v-3.999999999999993a4,4,0,0,0,-3.9999999999999725,3.999999999999993h3.9999999999999734h-3.9999999999999734a4,4,0,0,0,3.9999999999999734,4.000000000000007v-4.000000000000007v4.000000000000007a4,4,0,0,0,4.000000000000014,-4.000000000000007h-4.000000000000014Z" style="fill:url(#rgrd3-c); stroke:none; vector-effect:non-scaling-stroke;stroke-width:1px;" id="e22_shape" transform="matrix(9.625 0 0 9.625 192.5 135.5)"/><path d="M65.22077922077916,35.71428571428566h4a4,4,0,0,0,-4,-3.9999999999999645v3.9999999999999645v-3.9999999999999645a4,4,0,0,0,-4,3.9999999999999645h4h-4a4,4,0,0,0,4,4v-4v4a4,4,0,0,0,4,-4h-4Z" style="fill:url(#rgrd3-c); stroke:none; vector-effect:non-scaling-stroke;stroke-width:1px;" id="e23_shape" transform="matrix(9.625 0 0 9.625 192.5 135.5)"/><path d="M36.779220779220765,33.97402597402592h4a4,4,0,0,0,-4,-3.999999999999986v3.999999999999986v-3.999999999999986a4,4,0,0,0,-4.000000000000014,3.999999999999986h4.000000000000014h-4.000000000000014a4,4,0,0,0,4.000000000000014,4v-4v4a4,4,0,0,0,4,-4h-4Z" style="fill:url(#rgrd3-c); stroke:none; vector-effect:non-scaling-stroke;stroke-width:1px;" id="e24_shape" transform="matrix(9.625 0 0 9.625 192.5 135.5)"/><path d="M49.584415584415595,33.896103896103924h4a4,4,0,0,0,-4,-4.000000000000021v4.000000000000021v-4.000000000000021a4,4,0,0,0,-3.999999999999986,4.000000000000021h3.999999999999986h-3.999999999999986a4,4,0,0,0,3.999999999999986,4v-4v4a4,4,0,0,0,4,-4h-4Z" style="fill:url(#rgrd3-c); stroke:none; vector-effect:non-scaling-stroke;stroke-width:1px;" id="e25_shape" transform="matrix(9.625 0 0 9.625 192.5 135.5)"/><path d="M52.41558441558443,26.961038961038987h4a4,4,0,0,0,-4,-4.000000000000014v4.000000000000014v-4.000000000000014a4,4,0,0,0,-3.999999999999986,4.000000000000014h3.999999999999986h-3.999999999999986a4,4,0,0,0,3.999999999999986,4v-4v4a4,4,0,0,0,4,-4h-4Z" style="fill:url(#rgrd3-c); stroke:none; vector-effect:non-scaling-stroke;stroke-width:1px;" id="e26_shape" transform="matrix(9.625 0 0 9.625 192.5 135.5)"/><path d="M76.15584415584415,35.53246753246748h4a4,4,0,0,0,-4,-3.9999999999999645v3.9999999999999645v-3.9999999999999645a4,4,0,0,0,-4,3.9999999999999645h4h-4a4,4,0,0,0,4,4v-4v4a4,4,0,0,0,4,-4h-4Z" style="fill:url(#rgrd3-c); stroke:none; vector-effect:non-scaling-stroke;stroke-width:1px;" id="e27_shape" transform="matrix(9.625 0 0 9.625 192.5 135.5)"/><path d="M12.285714285714299,25.999999999999986h4a4,4,0,0,0,-4,-4v4v-4a4,4,0,0,0,-4,4h4h-4a4,4,0,0,0,4,4v-4v4a4,4,0,0,0,4,-4h-4Z" style="fill:url(#rgrd3-c); stroke:none; vector-effect:non-scaling-stroke;stroke-width:1px;" id="e28_shape" transform="matrix(9.625 0 0 9.625 192.5 135.5)"/></svg>