<svg xmlns="http://www.w3.org/2000/svg" xmlns:xlink="http://www.w3.org/1999/xlink" width="960px" height="630px" viewBox="0 0 960 630" preserveAspectRatio="xMidYMid meet" ><rect id="svgEditorBackground" x="0" y="0" width="960" height="630" style="fill: none; stroke: none;"/><defs id="svgEditorDefs"><polygon id="svgEditorShapeDefs" style="fill:url(#gradient1);stroke:black;vector-effect:non-scaling-stroke;stroke-width:1px;"/><linearGradient gradientUnits="objectBoundingBox" id="lgrd2-fire" spreadMethod="pad" x1="0%" x2="100%" y1="0%" y2="0%"><stop offset="0%" style="stop-color:rgb(255,255,0);stop-opacity:1"/><stop offset="100%" style="stop-color:rgb(255,0,0);stop-opacity:1"/></linearGradient><linearGradient gradientUnits="objectBoundingBox" id="lgrd2-peachpuff-sienna-v" spreadMethod="pad" x1="0%" x2="0%" y1="0%" y2="100%"><stop offset="0%" style="stop-color: black; stop-opacity: 0.84;"/><stop offset="100%" style="stop-color: rgb(110, 54, 15); stop-opacity: 1;"/></linearGradient><radialGradient id="gradient2"><stop offset="100%" style="stop-color: black; stop-opacity: 0.724;"/><stop offset="0" style="stop-color: saddlebrown; stop-opacity: 0.558;"/></radialGradient><radialGradient id="gradient1" gradientTransform=""><stop style="stop-color: rgb(0, 0, 0);"/><stop offset="100%" style="stop-color: rgb(89, 40, 14); stop-opacity: 1;"/></radialGradient></defs><path d="M-9.411764705882355,4.0784313725490176h4a4,4,0,0,0,-4,-4v4v-4a4,4,0,0,0,-4,4h4h-4a4,4,0,0,0,4,4v-4v4a4,4,0,0,0,4,-4h-4Z" style="fill:url(#gradient1); stroke:none; vector-effect: non-scaling-stroke; stroke-width: 1px;" id="e1_shape" transform="matrix(12.75 0 0 12.75 223 177)"/><path d="M10.470588235294116,18h4a4,4,0,0,0,-4,-4.000000000000002v4.000000000000002v-4.000000000000002a4,4,0,0,0,-4,4.000000000000002h4h-4a4,4,0,0,0,4,4v-4v4a4,4,0,0,0,4,-4h-4Z" style="fill:url(#gradient1); stroke:none; vector-effect: non-scaling-stroke; stroke-width: 1px;" id="e13_shape" transform="matrix(12.75 0 0 12.75 223 177)"/><path d="M-3.8431372549019596,11.529411764705893h4a4,4,0,0,0,-4,-4.000000000000007v4.000000000000007v-4.000000000000007a4,4,0,0,0,-3.9999999999999982,4.000000000000007h4.000000000000001h-4.000000000000001a4,4,0,0,0,4.000000000000001,4v-4v4a4,4,0,0,0,4,-4h-4Z" style="fill:url(#gradient1); stroke:none; vector-effect: non-scaling-stroke; stroke-width: 1px;" id="e2_shape" transform="matrix(12.75 0 0 12.75 223 177)"/><path d="M18.784313725490204,1.3725490196078534h4.000000000000011a4,4,0,0,0,-4.000000000000011,-4v4v-4a4,4,0,0,0,-4,4h4h-4a4,4,0,0,0,4,4v-4v4a4,4,0,0,0,4.000000000000011,-4h-4.000000000000011Z" style="fill:url(#gradient1); stroke:none; vector-effect: non-scaling-stroke; stroke-width: 1px;" id="e3_shape" transform="matrix(12.75 0 0 12.75 223 177)"/><path d="M-0.5098039215686152,3.7254901960784306h4.000000000000003a4,4,0,0,0,-4.000000000000003,-4v3.999999999999999v-3.999999999999999a4,4,0,0,0,-4,3.999999999999999h4h-4a4,4,0,0,0,4,4.000000000000002v-4.000000000000001v4.000000000000001a4,4,0,0,0,4.000000000000003,-4.000000000000001h-4.000000000000003Z" style="fill:url(#gradient1); stroke:none; vector-effect: non-scaling-stroke; stroke-width: 1px;" id="e4_shape" transform="matrix(12.75 0 0 12.75 223 177)"/><path d="M10.823529411764717,-0.15686274509803466h4.0000000000000036a4,4,0,0,0,-4.0000000000000036,-4v3.9999999999999987v-3.9999999999999987a4,4,0,0,0,-4,3.9999999999999987h4h-4a4,4,0,0,0,4,4.000000000000005v-4.0000000000000036v4.0000000000000036a4,4,0,0,0,4.0000000000000036,-4.0000000000000036h-4.0000000000000036Z" style="fill:url(#gradient1); stroke:none; vector-effect: non-scaling-stroke; stroke-width: 1px;" id="e5_shape" transform="matrix(12.75 0 0 12.75 223 177)"/><path d="M20,20h4a4,4,0,0,0,-4,-4v4v-4a4,4,0,0,0,-4,4h4h-4a4,4,0,0,0,4,4v-4v4a4,4,0,0,0,4,-4h-4Z" style="fill:url(#gradient1); stroke:none; vector-effect: non-scaling-stroke; stroke-width: 1px;" id="e6_shape" transform="matrix(12.75 0 0 12.75 223 177)"/><path d="M28.784313725490204,11.372549019607852h4.000000000000011a4,4,0,0,0,-4.000000000000011,-3.999999999999999v3.999999999999999v-3.999999999999999a4,4,0,0,0,-4,3.999999999999999h4h-4a4,4,0,0,0,4,4v-4v4a4,4,0,0,0,4.000000000000011,-4h-4.000000000000011Z" style="fill:url(#gradient1); stroke:none; vector-effect: non-scaling-stroke; stroke-width: 1px;" id="e7_shape" transform="matrix(12.75 0 0 12.75 223 177)"/><path d="M30.235294117647076,4.431372549019624h4.000000000000011a4,4,0,0,0,-4.000000000000011,-4v4v-4a4,4,0,0,0,-4,4h4h-4a4,4,0,0,0,4,4v-4v4a4,4,0,0,0,4.000000000000011,-4h-4.000000000000011Z" style="fill:url(#gradient1); stroke:none; vector-effect: non-scaling-stroke; stroke-width: 1px;" id="e8_shape" transform="matrix(12.75 0 0 12.75 223 177)"/><path d="M20.941176470588246,11.294117647058833h4.000000000000011a4,4,0,0,0,-4.000000000000011,-3.999999999999999v3.999999999999999v-3.999999999999999a4,4,0,0,0,-4,3.999999999999999h4h-4a4,4,0,0,0,4,4v-4v4a4,4,0,0,0,4.000000000000011,-4h-4.000000000000011Z" style="fill:url(#gradient1); stroke:none; vector-effect: non-scaling-stroke; stroke-width: 1px;" id="e9_shape" transform="matrix(12.75 0 0 12.75 223 177)"/><path d="M36.82352941176471,13.68627450980394h4.000000000000014a4,4,0,0,0,-4.000000000000014,-3.9999999999999982v3.9999999999999982v-3.9999999999999982a4,4,0,0,0,-4,3.9999999999999982h4h-4a4,4,0,0,0,4,4v-4v4a4,4,0,0,0,4.000000000000014,-4h-4.000000000000014Z" style="fill:url(#gradient1); stroke:none; vector-effect: non-scaling-stroke; stroke-width: 1px;" id="e10_shape" transform="matrix(12.75 0 0 12.75 223 177)"/><path d="M37.725490196078454,8.156862745098056h4.000000000000014a4,4,0,0,0,-4.000000000000014,-4.000000000000001v4.000000000000001v-4.000000000000001a4,4,0,0,0,-4,4.000000000000001h4h-4a4,4,0,0,0,4,4.000000000000002v-4.000000000000002v4.000000000000002a4,4,0,0,0,4.000000000000014,-4.000000000000002h-4.000000000000014Z" style="fill:url(#gradient1); stroke:none; vector-effect: non-scaling-stroke; stroke-width: 1px;" id="e11_shape" transform="matrix(12.75 0 0 12.75 223 177)"/><path d="M46.392156862745125,1.6862745098039422h4.000000000000014a4,4,0,0,0,-4.000000000000014,-3.9999999999999982v3.9999999999999982v-3.9999999999999982a4,4,0,0,0,-4,3.9999999999999982h4h-4a4,4,0,0,0,4,4.000000000000009v-4.000000000000009v4.000000000000009a4,4,0,0,0,4.000000000000014,-4.000000000000009h-4.000000000000014Z" style="fill:url(#gradient1); stroke:none; vector-effect: non-scaling-stroke; stroke-width: 1px;" id="e12_shape" transform="matrix(12.75 0 0 12.75 223 177)"/><path d="M38.78431372549021,21.372549019607852h4.000000000000007a4,4,0,0,0,-4.000000000000007,-4v4v-4a4,4,0,0,0,-4,4h4h-4a4,4,0,0,0,4,4v-4v4a4,4,0,0,0,4.000000000000007,-4h-4.000000000000007Z" style="fill:url(#gradient1); stroke:none; vector-effect: non-scaling-stroke; stroke-width: 1px;" id="e14_shape" transform="matrix(12.75 0 0 12.75 223 177)"/><path d="M26.745098039215698,20.862745098039234h4a4,4,0,0,0,-4,-4v4v-4a4,4,0,0,0,-3.9999999999999964,4h3.9999999999999964h-3.9999999999999964a4,4,0,0,0,3.9999999999999964,4v-4v4a4,4,0,0,0,4,-4h-4Z" style="fill:url(#gradient1); stroke:none; vector-effect: non-scaling-stroke; stroke-width: 1px;" id="e15_shape" transform="matrix(12.75 0 0 12.75 223 177)"/><path d="M46.62745098039215,11.80392156862748h4a4,4,0,0,0,-4,-4.000000000000005v4.000000000000005v-4.000000000000005a4,4,0,0,0,-4,4.000000000000005h4h-4a4,4,0,0,0,4,4v-4v4a4,4,0,0,0,4,-4h-4Z" style="fill:url(#gradient1); stroke:none; vector-effect: non-scaling-stroke; stroke-width: 1px;" id="e16_shape" transform="matrix(12.75 0 0 12.75 223 177)"/><path d="M45.80392156862747,19.29411764705886h4a4,4,0,0,0,-4,-4.000000000000007v4.000000000000007v-4.000000000000007a4,4,0,0,0,-4,4.000000000000007h4h-4a4,4,0,0,0,4,4v-4v4a4,4,0,0,0,4,-4h-4Z" style="fill:url(#gradient1); stroke:none; vector-effect: non-scaling-stroke; stroke-width: 1px;" id="e17_shape" transform="matrix(12.75 0 0 12.75 223 177)"/><path d="M53.60784313725493,6.313725490196116h4a4,4,0,0,0,-4,-4.000000000000007v4.000000000000007v-4.000000000000007a4,4,0,0,0,-4,4.000000000000007h4h-4a4,4,0,0,0,4,4.000000000000002v-4.000000000000002v4.000000000000002a4,4,0,0,0,4,-4.000000000000002h-4Z" style="fill:url(#gradient1); stroke:none; vector-effect: non-scaling-stroke; stroke-width: 1px;" id="e18_shape" transform="matrix(12.75 0 0 12.75 223 177)"/><path d="M63.60784313725493,16.313725490196116h4a4,4,0,0,0,-4,-4.000000000000007v4.000000000000007v-4.000000000000007a4,4,0,0,0,-4,4.000000000000007h4h-4a4,4,0,0,0,4,4.0000000000000036v-4.0000000000000036v4.0000000000000036a4,4,0,0,0,4,-4.0000000000000036h-4Z" style="fill:url(#gradient1); stroke:none; vector-effect: non-scaling-stroke; stroke-width: 1px;" id="e19_shape" transform="matrix(12.75 0 0 12.75 223 177)"/><path d="M1.4509803921568736,15.254901960784302h4.000000000000001a4,4,0,0,0,-4.000000000000001,-4v4v-4a4,4,0,0,0,-4.000000000000002,4h4.000000000000002h-4.000000000000002a4,4,0,0,0,4.000000000000002,4.0000000000000036v-4.0000000000000036v4.0000000000000036a4,4,0,0,0,4.000000000000001,-4.0000000000000036h-4.000000000000001Z" style="fill:url(#gradient1); stroke:none; vector-effect: non-scaling-stroke; stroke-width: 1px;" id="e20_shape" transform="matrix(12.75 0 0 12.75 223 177)"/><path d="M10.03921568627452,9.803921568627462h4a4,4,0,0,0,-4,-3.9999999999999982v3.9999999999999982v-3.9999999999999982a4,4,0,0,0,-4,3.9999999999999982h4h-4a4,4,0,0,0,4,4v-4v4a4,4,0,0,0,4,-4h-4Z" style="fill:url(#gradient1); stroke:none; vector-effect: non-scaling-stroke; stroke-width: 1px;" id="e21_shape" transform="matrix(12.75 0 0 12.75 223 177)"/></svg>