<?xml version="1.0" standalone="no"?>
<!DOCTYPE svg PUBLIC "-//W3C//DTD SVG 20010904//EN"
 "http://www.w3.org/TR/2001/REC-SVG-20010904/DTD/svg10.dtd">
<svg version="1.0" xmlns="http://www.w3.org/2000/svg"
 width="1298.000000pt" height="1298.000000pt" viewBox="0 0 1298.000000 1298.000000"
 preserveAspectRatio="xMidYMid meet">
<metadata>
Created by potrace 1.11, written by Peter Selinger 2001-2013
</metadata>
<g transform="translate(0.000000,1298.000000) scale(0.100000,-0.100000)"
fill="#000000" stroke="none">
<path d="M2789 12975 c-3 -2 -84 -7 -180 -9 -96 -3 -185 -8 -199 -11 -14 -3
-35 -8 -48 -11 -77 -16 -185 -74 -247 -132 -14 -13 -25 -21 -25 -18 0 3 -22
-19 -48 -47 -144 -156 -213 -291 -247 -482 -8 -49 -18 -321 -30 -815 l-6 -245
78 -3 c106 -5 277 -10 398 -11 63 -1 106 -6 116 -14 11 -8 19 -34 23 -72 16
-161 18 -194 21 -240 2 -27 4 -50 5 -50 3 0 8 -44 14 -130 3 -44 6 -80 6 -80
2 0 9 -59 16 -134 3 -42 7 -89 9 -106 1 -16 6 -61 9 -100 4 -38 9 -92 12 -120
3 -27 7 -68 9 -90 2 -22 6 -62 9 -90 3 -27 8 -81 11 -120 4 -38 8 -83 10 -100
2 -16 7 -61 10 -100 3 -38 7 -88 10 -110 2 -22 7 -69 10 -105 3 -36 8 -87 10
-115 10 -98 21 -219 29 -320 3 -33 7 -76 10 -95 3 -19 8 -71 12 -115 3 -44 7
-91 9 -105 1 -14 6 -56 9 -95 4 -38 9 -95 13 -125 3 -30 7 -73 8 -95 2 -22 6
-65 9 -95 4 -30 8 -86 11 -125 2 -38 5 -70 6 -70 2 0 6 -35 13 -110 3 -38 8
-86 10 -105 3 -19 8 -69 11 -110 3 -41 7 -93 10 -115 7 -61 21 -195 30 -305 3
-36 8 -83 10 -105 3 -22 7 -67 10 -100 3 -33 7 -83 11 -110 3 -28 7 -80 9
-115 2 -36 4 -65 5 -65 2 0 8 -54 15 -135 3 -36 7 -85 9 -110 5 -60 15 -164
21 -220 3 -25 7 -72 10 -105 3 -33 7 -80 10 -105 13 -116 34 -335 40 -420 4
-57 14 -155 20 -200 2 -19 7 -66 10 -103 3 -37 7 -82 10 -100 2 -18 7 -67 10
-109 3 -42 7 -92 10 -110 2 -18 7 -60 10 -93 5 -57 7 -81 20 -220 4 -33 8 -85
11 -115 2 -30 7 -75 9 -100 3 -25 8 -74 10 -110 3 -36 8 -83 11 -105 3 -22 7
-65 8 -96 2 -31 5 -60 7 -65 2 -5 4 -30 4 -56 0 -27 2 -48 5 -48 3 0 5 -15 6
-32 0 -18 4 -71 8 -118 5 -47 9 -98 11 -115 1 -16 6 -61 10 -100 4 -38 9 -88
10 -110 1 -22 5 -60 8 -85 6 -44 16 -137 23 -215 1 -22 5 -62 8 -90 3 -27 8
-79 11 -115 3 -36 8 -81 10 -100 2 -19 7 -66 10 -105 6 -77 10 -110 19 -200
10 -96 15 -146 21 -205 2 -30 7 -75 9 -100 3 -25 8 -72 11 -105 3 -33 8 -78
10 -100 3 -22 7 -65 10 -95 3 -30 7 -71 9 -90 3 -19 7 -69 11 -110 7 -80 11
-113 20 -200 7 -67 11 -104 20 -195 10 -109 14 -147 19 -190 5 -39 10 -90 21
-195 3 -28 8 -74 11 -103 3 -28 8 -74 9 -102 2 -27 4 -50 5 -50 3 0 8 -40 14
-100 10 -103 15 -135 21 -145 4 -6 8 -21 11 -34 10 -59 91 -225 137 -283 79
-99 236 -237 283 -249 13 -3 24 -10 24 -14 0 -16 92 -25 345 -34 61 -2 110 -5
110 -6 0 -13 3260 -19 3695 -7 146 5 274 7 285 7 26 -2 30 -1 93 2 31 2 52 -1
52 -7 0 -7 3 -7 8 0 4 6 50 11 102 12 161 2 525 12 525 13 0 1 11 3 25 6 57
10 252 163 330 260 56 69 139 214 123 214 -3 0 0 7 7 15 7 9 10 18 7 22 -4 3
-3 11 2 17 5 6 11 36 15 66 3 30 8 66 11 80 2 13 7 42 10 65 4 22 8 51 10 65
2 14 6 50 10 80 3 30 8 66 10 80 5 24 10 70 20 180 3 30 8 71 10 90 2 19 7 60
10 90 13 128 16 157 20 190 7 79 16 158 21 209 4 30 8 71 9 90 2 20 4 36 5 36
1 0 12 131 13 163 1 12 3 22 7 22 3 0 5 21 6 48 1 46 9 134 18 202 3 19 8 67
11 105 3 39 8 88 10 110 11 104 17 164 20 210 2 28 7 70 10 95 4 25 8 72 10
105 2 33 4 60 5 60 1 0 3 20 5 45 2 25 6 77 10 115 3 39 8 90 10 115 2 25 6
63 9 85 2 22 7 69 10 105 4 36 8 81 11 100 2 19 7 67 10 105 3 39 8 88 11 110
3 22 7 72 9 110 2 39 6 81 9 95 3 14 8 54 11 90 3 36 7 85 10 110 12 125 17
170 20 220 2 30 6 73 9 95 7 56 19 194 20 228 1 15 3 27 6 27 3 0 5 21 6 48 1
44 8 131 19 227 3 22 7 66 10 97 5 57 11 123 20 203 2 22 7 74 11 115 10 110
12 140 17 190 16 153 24 238 31 325 3 33 7 76 10 95 7 50 18 166 22 230 1 30
4 55 4 55 1 0 3 16 5 35 5 62 23 251 30 325 1 17 6 62 9 100 3 39 9 90 12 115
3 25 7 68 9 95 3 44 9 114 20 220 3 28 10 99 20 190 8 80 15 161 20 210 3 28
7 70 9 95 6 50 16 164 21 225 2 22 6 65 9 95 3 30 8 84 11 120 3 36 7 86 10
113 12 111 15 145 20 207 6 72 12 133 21 213 8 64 13 132 18 219 2 37 6 70 8
75 5 10 11 81 12 145 1 27 3 48 7 48 3 0 5 10 6 23 0 25 10 135 18 217 3 30 8
73 10 95 2 22 7 72 10 110 6 71 13 145 20 200 2 17 6 62 9 100 4 39 9 95 12
125 4 30 7 73 9 95 4 55 14 161 21 215 3 25 8 72 10 105 2 33 6 78 9 100 2 22
6 67 9 100 5 60 13 145 20 220 3 22 7 74 11 115 11 136 13 144 31 157 11 8 49
13 103 14 148 1 415 9 446 13 17 3 34 5 38 5 5 1 5 103 2 229 -3 125 -8 296
-10 380 -2 84 -7 156 -10 161 -3 5 -1 12 5 16 6 4 8 11 4 16 -3 6 -8 54 -11
107 -5 103 -9 154 -13 162 -1 3 -2 8 -2 11 2 14 -36 136 -58 189 -41 95 -109
192 -198 278 -47 45 -91 82 -99 82 -7 0 -13 3 -13 8 0 8 -103 72 -123 76 -7 2
-25 8 -40 14 -41 17 -64 22 -137 29 -77 7 -7714 16 -7721 8z m7186 -449 c460
-8 511 -11 577 -34 31 -11 65 -26 74 -34 49 -38 106 -103 123 -141 19 -40 35
-134 36 -205 0 -17 2 -32 5 -32 3 0 6 -21 7 -48 1 -26 4 -69 6 -97 3 -27 8
-95 11 -150 4 -55 8 -109 9 -120 2 -20 -4 -20 -4323 -21 l-4326 0 2 205 c2
238 5 272 40 390 46 161 127 255 235 275 13 3 24 5 24 6 0 1 223 4 495 7 272
2 496 5 497 6 4 5 6224 -2 6508 -7z m-492 -9141 c-3 -9 -8 -14 -10 -11 -3 3
-2 9 2 15 9 16 15 13 8 -4z"/>
</g>
</svg>
